<?xml version="1.0" encoding="UTF-8" standalone="no"?>
<svg
   xmlns:dc="http://purl.org/dc/elements/1.1/"
   xmlns:cc="http://creativecommons.org/ns#"
   xmlns:rdf="http://www.w3.org/1999/02/22-rdf-syntax-ns#"
   xmlns:svg="http://www.w3.org/2000/svg"
   xmlns="http://www.w3.org/2000/svg"
   xmlns:sodipodi="http://sodipodi.sourceforge.net/DTD/sodipodi-0.dtd"
   xmlns:inkscape="http://www.inkscape.org/namespaces/inkscape"
   width="2481"
   height="2073"
   id="svg3691"
   version="1.1"
   inkscape:version="0.48.2 r9819"
   sodipodi:docname="google-maps-blue-marker-w-shadow_largebean_widestripe_invertedcols.svg"
   inkscape:export-filename="/Users/whiteb/Dropbox/Public/bawcoffeemap/images/google-maps-blue-marker-w-shadow_largebean_invertedcols.png"
   inkscape:export-xdpi="90"
   inkscape:export-ydpi="90">
  <metadata
     id="metadata3709">
    <rdf:RDF>
      <cc:Work
         rdf:about="">
        <dc:format>image/svg+xml</dc:format>
        <dc:type
           rdf:resource="http://purl.org/dc/dcmitype/StillImage" />
        <dc:title>orange pin</dc:title>
      </cc:Work>
    </rdf:RDF>
  </metadata>
  <sodipodi:namedview
     pagecolor="#ffffff"
     bordercolor="#666666"
     borderopacity="1"
     objecttolerance="10"
     gridtolerance="10"
     guidetolerance="10"
     inkscape:pageopacity="0"
     inkscape:pageshadow="2"
     inkscape:window-width="1920"
     inkscape:window-height="1076"
     id="namedview3707"
     showgrid="false"
     inkscape:zoom="0.23276638"
     inkscape:cx="549.18488"
     inkscape:cy="1134.9918"
     inkscape:window-x="1276"
     inkscape:window-y="23"
     inkscape:window-maximized="0"
     inkscape:current-layer="svg3691" />
  <title
     id="title3693">orange pin</title>
  <defs
     id="defs3695">
    <filter
       x="-50%"
       y="-50%"
       height="200%"
       width="200%"
       id="svg_3_blur">
      <feGaussianBlur
         stdDeviation="7.7"
         id="feGaussianBlur3698" />
    </filter>
  </defs>
  <g
     id="g3700">
    <title
       id="title3702">Layer 1</title>
    <path
       d="m730.940002,1839.630005c-38.765991,-190.300049 -107.116028,-348.670044 -189.903015,-495.440063c-61.406982,-108.869995 -132.543976,-209.359985 -198.363983,-314.939941c-21.972015,-35.242981 -40.93399,-72.476013 -62.046997,-109.052979c-42.216003,-73.137024 -76.444,-157.934998 -74.269012,-267.932007c2.125,-107.473022 33.208008,-193.684021 78.029999,-264.172028c73.718994,-115.934998 197.201019,-210.988983 362.884003,-235.968994c135.466003,-20.423996 262.474976,14.082001 352.54303,66.748001c73.596008,43.03801 130.596008,100.526993 173.915955,168.280014c45.219971,70.716003 76.359985,154.259979 78.969971,263.231964c1.340088,55.830017 -7.799927,107.532043 -20.679932,150.41803c-13.030029,43.408997 -33.98999,79.695007 -52.640015,118.453979c-36.410034,75.658997 -82.050049,144.984009 -127.859985,214.343994c-136.437012,206.609985 -264.496033,417.310059 -320.580017,706.030029z"
       stroke-width="37"
       stroke-miterlimit="10"
       fill-rule="evenodd"
       fill="#787878"
       clip-rule="evenodd"
       id="svg_2" />
    <path
       filter="url(#svg_3_blur)"
       d="m731.379028,1838.955444c131.603943,-120.869995 211.313965,-235.97998 269.140991,-350.48999c42.890015,-84.950073 70.540039,-169.170044 106.949951,-254.060059c12.160034,-28.339966 28.51001,-56.569946 42.52002,-85.299927c28.02002,-57.450073 72.660034,-118.140015 169.030029,-178.100037c94.160034,-58.589966 193.949951,-93.755981 291.579956,-114.69696c160.560059,-34.442017 344.280029,-37.299011 502.589966,15.593018c129.449951,43.243958 204.680176,113.463928 233.780029,178.863892c23.780029,53.440063 21.429932,108.180054 -1.040039,163.099976c-23.459961,57.320068 -69.569824,116.070068 -161.109863,177.390015c-46.900146,31.420044 -98.900146,56.340088 -146.410034,74.869995c-48.090088,18.76001 -96.599976,30.390015 -145.330078,44.320068c-95.119995,27.189941 -192.419922,47.150024 -289.890015,67.079956c-290.319946,59.339966 -577.25,124.320068 -871.810913,261.430054z"
       fill-rule="evenodd"
       fill="black"
       clip-rule="evenodd"
       opacity="0.25"
       id="svg_3" />
    <circle
       r="183.333"
       cy="651.047"
       cx="729.546"
       fill-rule="evenodd"
       fill="#cfcfcf"
       clip-rule="evenodd"
       id="svg_4" />
  </g>
  <path
     style="fill:#784421;stroke:#87cdde;stroke-width:8.78389834999999941;fill-opacity:1;stroke-opacity:1;opacity:1"
     d="M 707.7553,1731.0626 C 653.84501,1539.2587 587.12223,1402.6795 416.70197,1135.2863 233.10799,847.22321 197.1571,750.81589 217.18665,600.25819 c 5.63263,-42.33921 18.11218,-96.94936 27.73234,-121.3559 53.10029,-134.71653 172.86902,-250.063 309.59616,-298.16485 75.95132,-26.72037 218.64382,-33.42228 296.32725,-13.91775 233.6433,58.66246 395.1657,258.9797 395.1657,490.07752 0,129.99679 -41.226,225.80504 -216.635,503.45579 -57.99056,91.7917 -121.55976,196.5397 -141.26495,232.7733 -62.25743,114.478 -118.95303,263.8903 -149.47046,393.9061 -6.48107,27.6117 -8.33406,24.2535 -30.88239,-55.9698 z"
     id="path3719"
     inkscape:connector-curvature="0"
     sodipodi:nodetypes="csssssssssc" />
  <path
     sodipodi:type="arc"
     style="fill:#87cdde;fill-opacity:1;stroke:#87cdde;stroke-opacity:1"
     id="path4975"
     sodipodi:cx="750.75275"
     sodipodi:cy="611.23389"
     sodipodi:rx="127.81055"
     sodipodi:ry="233.06631"
     d="m 878.56329,611.23389 a 127.81055,233.06631 0 1 1 -255.62109,0 127.81055,233.06631 0 1 1 255.62109,0 z"
     transform="matrix(1.8754922,-0.5275117,0.53192206,1.6863792,-1005.4988,50.902513)" />
  <path
     style="fill:#784421;fill-opacity:1;stroke:#87cdde;stroke-width:2.29418992999999993;stroke-opacity:1"
     id="path5003"
     d="m 591.50496,342.16885 c 26.03504,23.72203 43.37293,47.34592 60.41208,69.87948 22.21931,31.29805 42.00254,61.99864 57.20655,91.0799 3.5133,6.72001 6.54365,13.25931 9.81546,19.88896 20.61654,43.22805 27.23525,80.31204 33.82673,117.17104 5.71961,41.60987 8.57629,81.74912 14.31569,123.37015 4.78073,39.34454 23.49031,85.10665 45.31784,131.99702 16.18161,34.02227 40.7286,70.79896 70.27657,108.8924 9.42966,11.8795 19.97336,23.9375 30.9175,36.0585 0,0 -51.45333,-16.4117 -51.45333,-16.4117 l 0,0 c -11.03058,-12.2843 -21.69742,-24.51164 -31.2195,-36.55069 -29.74441,-38.4416 -54.52535,-75.57543 -70.8943,-109.93823 -21.97264,-47.1541 -40.86346,-93.20142 -45.77517,-132.81068 -5.78098,-41.62223 -8.66323,-81.75366 -14.26926,-123.28588 -6.50753,-36.61739 -12.94995,-73.41805 -33.3688,-116.36006 -3.23579,-6.56758 -6.22966,-13.04454 -9.70741,-19.70265 -15.06643,-28.84465 -34.69812,-59.30722 -56.78434,-90.36878 -14.74033,-19.4498 -32.01142,-43.01019 -54.04229,-63.49284 -1.54384,-1.43538 -3.34249,-2.8346 -5.01376,-4.25191 0,0 50.43974,14.83597 50.43974,14.83597 z"
     inkscape:connector-curvature="0" />
</svg>
