<?xml version="1.0" encoding="UTF-8" standalone="no"?>
<svg
   xmlns:dc="http://purl.org/dc/elements/1.1/"
   xmlns:cc="http://creativecommons.org/ns#"
   xmlns:rdf="http://www.w3.org/1999/02/22-rdf-syntax-ns#"
   xmlns:svg="http://www.w3.org/2000/svg"
   xmlns="http://www.w3.org/2000/svg"
   xmlns:sodipodi="http://sodipodi.sourceforge.net/DTD/sodipodi-0.dtd"
   xmlns:inkscape="http://www.inkscape.org/namespaces/inkscape"
   width="2481"
   height="2073"
   id="svg3691"
   version="1.1"
   inkscape:version="0.48.2 r9819"
   sodipodi:docname="google-maps-blue-marker-w-shadow_largebean.svg"
   inkscape:export-filename="/Users/whiteb/Dropbox/Public/bawcoffeemap/images/google-maps-blue-marker-w-shadow_largebean.png"
   inkscape:export-xdpi="90"
   inkscape:export-ydpi="90">
  <metadata
     id="metadata3709">
    <rdf:RDF>
      <cc:Work
         rdf:about="">
        <dc:format>image/svg+xml</dc:format>
        <dc:type
           rdf:resource="http://purl.org/dc/dcmitype/StillImage" />
        <dc:title>orange pin</dc:title>
      </cc:Work>
    </rdf:RDF>
  </metadata>
  <sodipodi:namedview
     pagecolor="#ffffff"
     bordercolor="#666666"
     borderopacity="1"
     objecttolerance="10"
     gridtolerance="10"
     guidetolerance="10"
     inkscape:pageopacity="0"
     inkscape:pageshadow="2"
     inkscape:window-width="1920"
     inkscape:window-height="1076"
     id="namedview3707"
     showgrid="false"
     inkscape:zoom="0.32918137"
     inkscape:cx="866.36682"
     inkscape:cy="1337.9917"
     inkscape:window-x="1280"
     inkscape:window-y="22"
     inkscape:window-maximized="0"
     inkscape:current-layer="svg3691" />
  <title
     id="title3693">orange pin</title>
  <defs
     id="defs3695">
    <filter
       x="-50%"
       y="-50%"
       height="200%"
       width="200%"
       id="svg_3_blur">
      <feGaussianBlur
         stdDeviation="7.7"
         id="feGaussianBlur3698" />
    </filter>
  </defs>
  <g
     id="g3700">
    <title
       id="title3702">Layer 1</title>
    <path
       d="m730.940002,1839.630005c-38.765991,-190.300049 -107.116028,-348.670044 -189.903015,-495.440063c-61.406982,-108.869995 -132.543976,-209.359985 -198.363983,-314.939941c-21.972015,-35.242981 -40.93399,-72.476013 -62.046997,-109.052979c-42.216003,-73.137024 -76.444,-157.934998 -74.269012,-267.932007c2.125,-107.473022 33.208008,-193.684021 78.029999,-264.172028c73.718994,-115.934998 197.201019,-210.988983 362.884003,-235.968994c135.466003,-20.423996 262.474976,14.082001 352.54303,66.748001c73.596008,43.03801 130.596008,100.526993 173.915955,168.280014c45.219971,70.716003 76.359985,154.259979 78.969971,263.231964c1.340088,55.830017 -7.799927,107.532043 -20.679932,150.41803c-13.030029,43.408997 -33.98999,79.695007 -52.640015,118.453979c-36.410034,75.658997 -82.050049,144.984009 -127.859985,214.343994c-136.437012,206.609985 -264.496033,417.310059 -320.580017,706.030029z"
       stroke-width="37"
       stroke-miterlimit="10"
       fill-rule="evenodd"
       fill="#787878"
       clip-rule="evenodd"
       id="svg_2" />
    <path
       filter="url(#svg_3_blur)"
       d="m731.379028,1838.955444c131.603943,-120.869995 211.313965,-235.97998 269.140991,-350.48999c42.890015,-84.950073 70.540039,-169.170044 106.949951,-254.060059c12.160034,-28.339966 28.51001,-56.569946 42.52002,-85.299927c28.02002,-57.450073 72.660034,-118.140015 169.030029,-178.100037c94.160034,-58.589966 193.949951,-93.755981 291.579956,-114.69696c160.560059,-34.442017 344.280029,-37.299011 502.589966,15.593018c129.449951,43.243958 204.680176,113.463928 233.780029,178.863892c23.780029,53.440063 21.429932,108.180054 -1.040039,163.099976c-23.459961,57.320068 -69.569824,116.070068 -161.109863,177.390015c-46.900146,31.420044 -98.900146,56.340088 -146.410034,74.869995c-48.090088,18.76001 -96.599976,30.390015 -145.330078,44.320068c-95.119995,27.189941 -192.419922,47.150024 -289.890015,67.079956c-290.319946,59.339966 -577.25,124.320068 -871.810913,261.430054z"
       fill-rule="evenodd"
       fill="black"
       clip-rule="evenodd"
       opacity="0.25"
       id="svg_3" />
    <circle
       r="183.333"
       cy="651.047"
       cx="729.546"
       fill-rule="evenodd"
       fill="#cfcfcf"
       clip-rule="evenodd"
       id="svg_4" />
  </g>
  <path
     style="fill:#87cdde;stroke:#784421;stroke-width:8.78389834999999941;fill-opacity:1"
     d="M 707.7553,1731.0626 C 653.84501,1539.2587 587.12223,1402.6795 416.70197,1135.2863 233.10799,847.22321 197.1571,750.81589 217.18665,600.25819 c 5.63263,-42.33921 18.11218,-96.94936 27.73234,-121.3559 53.10029,-134.71653 172.86902,-250.063 309.59616,-298.16485 75.95132,-26.72037 218.64382,-33.42228 296.32725,-13.91775 233.6433,58.66246 395.1657,258.9797 395.1657,490.07752 0,129.99679 -41.226,225.80504 -216.635,503.45579 -57.99056,91.7917 -121.55976,196.5397 -141.26495,232.7733 -62.25743,114.478 -118.95303,263.8903 -149.47046,393.9061 -6.48107,27.6117 -8.33406,24.2535 -30.88239,-55.9698 z"
     id="path3719"
     inkscape:connector-curvature="0"
     sodipodi:nodetypes="csssssssssc" />
  <path
     sodipodi:type="arc"
     style="fill:#784421;fill-opacity:1;stroke:#784421"
     id="path4975"
     sodipodi:cx="750.75275"
     sodipodi:cy="611.23389"
     sodipodi:rx="127.81055"
     sodipodi:ry="233.06631"
     d="m 878.56329,611.23389 a 127.81055,233.06631 0 1 1 -255.62109,0 127.81055,233.06631 0 1 1 255.62109,0 z"
     transform="matrix(1.8754922,-0.5275117,0.53192206,1.6863792,-1005.4988,50.902513)" />
  <path
     style="fill:#87cdde;fill-opacity:1;stroke:#784421;stroke-width:1.80126882;stroke-opacity:1"
     id="path5003"
     d="m 619.31827,361.75452 c 16.51701,8.42756 28.71358,22.25538 40.59548,35.12771 15.78693,18.79483 30.27651,38.50395 42.2515,59.41081 2.76715,4.83109 5.26757,9.77808 7.90135,14.66712 16.81836,32.33231 25.76741,67.0724 34.66856,101.59357 9.19626,40.06 16.75031,80.38779 25.95806,120.44699 8.38496,38.27607 24.64693,74.47512 42.62498,109.88562 13.21473,25.47498 30.99201,48.54802 51.44638,69.83889 6.4852,6.5035 13.54919,12.48937 20.82104,18.28801 0,0 -27.98184,15.3303 -27.98184,15.3303 l 0,0 c -7.33964,-5.9153 -14.49052,-12.00115 -21.04589,-18.61368 -20.60485,-21.53197 -38.55256,-44.83187 -51.91212,-70.5458 -18.09024,-35.59549 -34.48555,-71.97927 -42.97584,-110.45035 -9.22853,-40.03415 -16.79403,-80.33753 -25.92218,-120.3879 -8.82264,-34.32064 -17.64108,-68.87489 -34.31783,-101.03201 -2.60645,-4.84666 -5.07927,-9.7513 -7.81936,-14.53994 -11.87068,-20.74552 -26.24884,-40.3007 -41.93372,-58.93148 -10.27218,-11.08983 -22.42596,-24.89327 -36.46523,-32.45407 -0.98384,-0.52986 -2.08827,-0.86053 -3.13241,-1.29081 0,0 27.23907,-16.34298 27.23907,-16.34298 z"
     inkscape:connector-curvature="0" />
</svg>
